<svg xmlns="http://www.w3.org/2000/svg" xmlns:xlink="http://www.w3.org/1999/xlink" xmlns:svgjs="http://svgjs.com/svgjs"><symbol id="icon-"><svg xmlns="http://www.w3.org/2000/svg" width="17" height="17" viewBox="2 2 16 16"/><path paint-order="stroke fill markers" fill-rule="evenodd" d="M7.96 10.941H3.099A1.1 1.1 0 0 0 2 12.04v4.863A1.1 1.1 0 0 0 3.098 18H7.96a1.1 1.1 0 0 0 1.098-1.098v-4.863a1.1 1.1 0 0 0-1.098-1.098zm-.156 1.255v4.55h-4.55v-4.55h4.55zM7.96 2H3.098A1.1 1.1 0 0 0 2 3.098v4.863a1.1 1.1 0 0 0 1.098 1.098H7.96A1.1 1.1 0 0 0 9.059 7.96V3.098A1.1 1.1 0 0 0 7.96 2zm-.157 1.255v4.549h-4.55v-4.55h4.55zM16.902 2h-4.863a1.1 1.1 0 0 0-1.098 1.098v4.863a1.1 1.1 0 0 0 1.098 1.098h4.863A1.1 1.1 0 0 0 18 7.96V3.098A1.1 1.1 0 0 0 16.902 2zm-.157 1.255v4.549h-4.549v-4.55h4.549zm.157 7.686h-4.863a1.1 1.1 0 0 0-1.098 1.098v4.863A1.1 1.1 0 0 0 12.04 18h4.863A1.1 1.1 0 0 0 18 16.902v-4.863a1.1 1.1 0 0 0-1.098-1.098zm-.157 1.255v4.55h-4.549v-4.55h4.549z"/></symbol><symbol id="icon-1" viewBox="0 0.008 17 16.984"><svg xmlns="http://www.w3.org/2000/svg" width="17" height="17" viewBox="1.997 1.003 16.007 15.992"/><path paint-order="stroke fill markers" fill-rule="evenodd" d="M16.42 2.446h-1.787v-.661a.783.783 0 0 0-1.564 0v.661h-2.287v-.661a.783.783 0 0 0-1.564 0v.661H6.93v-.661a.783.783 0 0 0-1.565 0v.661H3.581c-.874 0-1.584.71-1.584 1.583v11.383c0 .873.71 1.583 1.584 1.583H16.42c.874 0 1.584-.71 1.584-1.583V4.029c0-.873-.71-1.583-1.584-1.583zM3.58 4.009h1.785v.661a.783.783 0 0 0 1.565 0V4.01h2.287v.661a.783.783 0 0 0 1.564 0V4.01h2.287v.661a.783.783 0 0 0 1.564 0v-.658l1.806.017v11.383l-.02.02-12.858-.02.02-11.403zm10.034 4.822H6.528a.722.722 0 1 1 0-1.443h7.087a.722.722 0 1 1 0 1.443zm0 4.31H6.528a.722.722 0 1 1 0-1.443h7.087a.722.722 0 1 1 0 1.443z"/></symbol><symbol id="icon-2" viewBox="0 0.06 17 14.88"><svg xmlns="http://www.w3.org/2000/svg" width="17" height="15" viewBox="2.001 1 15.994 13.999"/><path paint-order="stroke fill markers" fill-rule="evenodd" d="M17.503 5.63a.728.728 0 0 0-.198-.028H15.79V3.728a.699.699 0 0 0-.685-.71H8.25V1.712A.699.699 0 0 0 7.565 1h-4.87a.686.686 0 0 0-.065 0l-.163.008v.027a.704.704 0 0 0-.466.675V14.311c.002.03.006.06.01.09l.004.025a.738.738 0 0 0 .012.064l.016.053.02.045.025.044.01.022a.752.752 0 0 0 .02.035l.024.03a.556.556 0 0 0 .027.034l.003.003c.01.012.021.026.04.046.028.03.059.057.092.081l.084.049a.769.769 0 0 0 .05.022l.027.008.021.009.04.011h.01l.032.008.025.003a.702.702 0 0 0 .042.005h10.746a.561.561 0 0 0 .063 0H15.107a.691.691 0 0 0 .66-.516l2.04-7.395.16-.576a.715.715 0 0 0-.464-.88zM7.565 4.44h6.854v1.164H4.887a.692.692 0 0 0-.657.516l-.858 3.107V2.421h3.507v1.308c0 .391.308.71.686.71zm8.833 2.583L14.59 13.58H3.599l1.809-6.558H14.9a.662.662 0 0 0 .41 0h1.088z"/></symbol><symbol id="icon-3" viewBox="0 0.032 17 15.936"><svg xmlns="http://www.w3.org/2000/svg" width="17" height="16" viewBox="2 2 16 14.999"/><path paint-order="stroke fill markers" fill-rule="evenodd" d="M15.69 4.636h-1.163v-.352a2.25 2.25 0 0 0-.674-1.614A2.31 2.31 0 0 0 12.221 2H4.12C2.95 2 2 2.938 2 4.092v10.627c0 1.257 1.036 2.28 2.31 2.28h11.38c1.274 0 2.31-1.023 2.31-2.28V6.916c0-1.257-1.036-2.28-2.31-2.28zM3.57 6.11l.015.004.09.022.051.006c.013 0 .025.004.037.007.023.004.045.009.068.012l.078.002c.067.006.134.01.201.01h11.58c.407 0 .738.326.738.743v7.8a.734.734 0 0 1-.738.728H4.308a.734.734 0 0 1-.738-.729V6.11zm9.385-1.478H4.12a.545.545 0 0 1-.548-.54c0-.299.245-.541.548-.541h8.097c.407 0 .738.327.738.729v.352zm.96 8.463a.782.782 0 0 0 .785-.775V9.182a.782.782 0 0 0-.786-.776.782.782 0 0 0-.786.776v3.138c0 .427.353.775.786.775z"/></symbol><symbol id="icon-4" viewBox="0 0.002 17 16.996"><svg xmlns="http://www.w3.org/2000/svg" width="17" height="17" viewBox="1.004 1.005 15.999 15.996"/><path paint-order="stroke fill markers" fill-rule="evenodd" d="M16.177 15.368H2.635V1.821a.817.817 0 0 0-1.631 0v14.363c0 .45.365.816.815.816h14.358a.817.817 0 0 0 0-1.632zM6.32 10.216l2.678-2.658 2.661 2.635c.141.169.35.262.555.262a.636.636 0 0 0 .165-.021.795.795 0 0 0 .448-.207l3.746-2.993a.946.946 0 0 0 .292-1.288.757.757 0 0 0-1.064-.242L12.305 8.53l-2.723-2.7a.83.83 0 0 0-1.169 0L5.156 9.061a.81.81 0 0 0-.239.577c0 .218.085.423.24.578a.83.83 0 0 0 1.163 0z"/></symbol><symbol id="icon-5" viewBox="0.056 0 16.888 19"><svg xmlns="http://www.w3.org/2000/svg" width="17" height="19" viewBox="2 2.006 15.994 17.994"/><path paint-order="stroke fill markers" fill-rule="evenodd" d="M6.569 6.543h1.524v1.02c.443.186.815.528 1.007.995l-1.415.561c-.06-.15-.257-.255-.466-.202-.208.054-.293.201-.265.353.028.151.185.283.402.27h.054c.859.043 1.637.58 1.795 1.435.155.84-.34 1.65-1.115 1.978v1.019H6.566V12.95a1.844 1.844 0 0 1-1.008-.997l1.414-.559c.061.15.26.257.468.203.208-.054.293-.203.265-.355-.028-.15-.186-.28-.402-.268h-.054c-.859-.044-1.639-.581-1.797-1.436-.155-.84.342-1.65 1.117-1.978V6.543zM5.804 2.01C3.72 2.01 2 3.666 2 5.704V17.79l2.283 2.21 1.521-1.472L7.324 20l1.522-1.471L10.367 20l2.282-2.209.01-9.786h5.334V5.762c.007-.837-.285-1.715-.854-2.445-.554-.71-1.428-1.271-2.497-1.305-2.875-.012-5.892 0-8.838 0V2.01zm8.73 1.495h.016c.593 0 1.031.28 1.379.724.347.446.544 1.064.54 1.521v.753h-3.81v-.805c.001-.665.203-1.226.522-1.6.315-.37.729-.589 1.353-.595v.002zm-8.73.009h6.001a3.985 3.985 0 0 0-.67 2.19l-.009 11.464-.759.735-1.521-1.473-1.522 1.473-1.52-1.473-1.52 1.473-.76-.735V5.708c.025-1.24 1.12-2.205 2.28-2.194z"/></symbol><symbol id="icon-6" viewBox="0.247 0 8.506 17"><svg xmlns="http://www.w3.org/2000/svg" width="9" height="17" viewBox="1.998 2 8.005 16"/><path paint-order="stroke fill markers" fill-rule="evenodd" d="M6.034 2C3.82 2 1.998 3.902 1.998 6.213c0 .694.562 1.28 1.243 1.28.698 0 1.243-.586 1.243-1.28 0-.889.699-1.617 1.55-1.617.835 0 1.516.728 1.516 1.617 0 .818-.34 1.227-.97 1.974-.784.835-1.823 1.99-1.823 4.195 0 .747.562 1.316 1.26 1.316.681 0 1.226-.57 1.226-1.316 0-1.19.477-1.724 1.124-2.435.733-.836 1.635-1.85 1.635-3.752C10.036 3.902 8.248 2 6.034 2zm0 12.871c-.834 0-1.516.676-1.516 1.565 0 .87.682 1.564 1.516 1.564.8 0 1.499-.693 1.499-1.564 0-.872-.681-1.565-1.499-1.565z"/></symbol></svg>